<svg width="62" height="132" viewBox="0 0 62 132" fill="none" xmlns="http://www.w3.org/2000/svg">
<rect x="56.3635" y="70.1393" width="5.63636" height="5.61114" rx="2" fill="#FF0000"/>
<rect x="56.3635" y="98.195" width="5.63636" height="5.61114" rx="2" fill="#FF0000"/>
<rect x="56.3635" y="84.1671" width="5.63636" height="5.61114" rx="2" fill="#FF0000"/>
<rect x="56.3635" y="112.223" width="5.63636" height="5.61114" rx="2" fill="#FF0000"/>
<rect x="56.3635" y="126.251" width="5.63636" height="5.61114" rx="2" fill="#FF0000"/>
<rect width="5.63636" height="5.61114" rx="2" transform="matrix(1 0 0 -1 14.0908 61.7226)" fill="#FF0000"/>
<rect width="5.63636" height="5.61114" rx="2" transform="matrix(1 0 0 -1 14.0908 33.6669)" fill="#FF0000"/>
<rect width="5.63636" height="5.61114" rx="2" transform="matrix(1 0 0 -1 14.0908 47.6948)" fill="#FF0000"/>
<rect width="5.63636" height="5.61114" rx="2" transform="matrix(1 0 0 -1 14.0908 19.639)" fill="#FF0000"/>
<rect width="5.63636" height="5.61114" rx="2" transform="matrix(1 0 0 -1 14.0908 5.61121)" fill="#FF0000"/>
<rect x="42.2727" y="70.1393" width="5.63636" height="5.61114" rx="2" fill="#FF0000"/>
<rect x="42.2727" y="98.195" width="5.63636" height="5.61114" rx="2" fill="#FF0000"/>
<rect x="42.2727" y="84.1671" width="5.63636" height="5.61114" rx="2" fill="#FF0000"/>
<rect x="42.2727" y="112.223" width="5.63636" height="5.61114" rx="2" fill="#FF0000"/>
<rect x="42.2727" y="126.251" width="5.63636" height="5.61114" rx="2" fill="#FF0000"/>
<rect width="5.63636" height="5.61114" rx="2" transform="matrix(1 0 0 -1 0 61.7226)" fill="#FF0000"/>
<rect width="5.63636" height="5.61114" rx="2" transform="matrix(1 0 0 -1 0 33.6669)" fill="#FF0000"/>
<rect width="5.63636" height="5.61114" rx="2" transform="matrix(1 0 0 -1 0 47.6948)" fill="#FF0000"/>
<rect width="5.63636" height="5.61114" rx="2" transform="matrix(1 0 0 -1 0 19.639)" fill="#FF0000"/>
<rect width="5.63636" height="5.61114" rx="2" transform="matrix(1 0 0 -1 0 5.61121)" fill="#FF0000"/>
<rect x="28.1819" width="5.63636" height="5.61114" rx="2" fill="#F98526"/>
<rect x="28.1819" y="28.0558" width="5.63636" height="5.61114" rx="2" fill="#F98526"/>
<rect x="28.1819" y="14.0279" width="5.63636" height="5.61114" rx="2" fill="#F98526"/>
<rect x="28.1819" y="42.0836" width="5.63636" height="5.61114" rx="2" fill="#F98526"/>
<rect x="28.1819" y="56.1115" width="5.63636" height="5.61114" rx="2" fill="#F98526"/>
<rect x="56.3635" width="5.63636" height="5.61114" rx="2" fill="#F98526"/>
<rect x="56.3635" y="28.0558" width="5.63636" height="5.61114" rx="2" fill="#F98526"/>
<rect x="56.3635" y="14.0279" width="5.63636" height="5.61114" rx="2" fill="#F98526"/>
<rect x="56.3635" y="42.0836" width="5.63636" height="5.61114" rx="2" fill="#F98526"/>
<rect x="56.3635" y="56.1115" width="5.63636" height="5.61114" rx="2" fill="#F98526"/>
<rect width="5.63636" height="5.61114" rx="2" transform="matrix(1 0 0 -1 14.0908 131.862)" fill="#F98526"/>
<rect width="5.63636" height="5.61114" rx="2" transform="matrix(1 0 0 -1 14.0908 103.806)" fill="#F98526"/>
<rect width="5.63636" height="5.61114" rx="2" transform="matrix(1 0 0 -1 14.0908 117.834)" fill="#F98526"/>
<rect width="5.63636" height="5.61114" rx="2" transform="matrix(1 0 0 -1 14.0908 89.7783)" fill="#F98526"/>
<rect width="5.63636" height="5.61114" rx="2" transform="matrix(1 0 0 -1 14.0908 75.7504)" fill="#F98526"/>
<rect x="42.2727" width="5.63636" height="5.61114" rx="2" fill="#F98526"/>
<rect x="42.2727" y="28.0558" width="5.63636" height="5.61114" rx="2" fill="#F98526"/>
<rect x="42.2727" y="14.0279" width="5.63636" height="5.61114" rx="2" fill="#F98526"/>
<rect x="42.2727" y="42.0836" width="5.63636" height="5.61114" rx="2" fill="#F98526"/>
<rect x="42.2727" y="56.1115" width="5.63636" height="5.61114" rx="2" fill="#F98526"/>
<rect width="5.63636" height="5.61114" rx="2" transform="matrix(1 0 0 -1 0 131.862)" fill="#F98526"/>
<rect width="5.63636" height="5.61114" rx="2" transform="matrix(1 0 0 -1 0 103.806)" fill="#F98526"/>
<rect width="5.63636" height="5.61114" rx="2" transform="matrix(1 0 0 -1 0 117.834)" fill="#F98526"/>
<rect width="5.63636" height="5.61114" rx="2" transform="matrix(1 0 0 -1 0 89.7783)" fill="#F98526"/>
<rect width="5.63636" height="5.61114" rx="2" transform="matrix(1 0 0 -1 0 75.7504)" fill="#F98526"/>
<rect x="28.1819" y="70.1393" width="5.63636" height="5.61114" rx="2" fill="#F98526"/>
<rect x="28.1819" y="98.195" width="5.63636" height="5.61114" rx="2" fill="#F98526"/>
<rect x="28.1819" y="84.1671" width="5.63636" height="5.61114" rx="2" fill="#F98526"/>
<rect x="28.1819" y="112.223" width="5.63636" height="5.61114" rx="2" fill="#F98526"/>
<rect x="28.1819" y="126.251" width="5.63636" height="5.61114" rx="2" fill="#F98526"/>
</svg>
