<svg width="78" height="48" viewBox="0 0 78 48" fill="none" xmlns="http://www.w3.org/2000/svg">
<path d="M6.688 31.448H14.048V35H2.208V12.664H6.688V31.448ZM24.7675 35.288C23.0608 35.288 21.5248 34.9147 20.1595 34.168C18.7942 33.4 17.7168 32.3227 16.9275 30.936C16.1595 29.5493 15.7755 27.9493 15.7755 26.136C15.7755 24.3227 16.1702 22.7227 16.9595 21.336C17.7702 19.9493 18.8688 18.8827 20.2555 18.136C21.6422 17.368 23.1888 16.984 24.8955 16.984C26.6022 16.984 28.1488 17.368 29.5355 18.136C30.9222 18.8827 32.0102 19.9493 32.7995 21.336C33.6102 22.7227 34.0155 24.3227 34.0155 26.136C34.0155 27.9493 33.5995 29.5493 32.7675 30.936C31.9568 32.3227 30.8475 33.4 29.4395 34.168C28.0528 34.9147 26.4955 35.288 24.7675 35.288ZM24.7675 31.384C25.5782 31.384 26.3355 31.192 27.0395 30.808C27.7648 30.4027 28.3408 29.8053 28.7675 29.016C29.1942 28.2267 29.4075 27.2667 29.4075 26.136C29.4075 24.4507 28.9595 23.16 28.0635 22.264C27.1888 21.3467 26.1115 20.888 24.8315 20.888C23.5515 20.888 22.4742 21.3467 21.5995 22.264C20.7462 23.16 20.3195 24.4507 20.3195 26.136C20.3195 27.8213 20.7355 29.1227 21.5675 30.04C22.4208 30.936 23.4875 31.384 24.7675 31.384ZM44.2458 16.984C45.5684 16.984 46.7311 17.2507 47.7338 17.784C48.7364 18.296 49.5258 18.968 50.1018 19.8V17.272H54.6138V35.128C54.6138 36.7707 54.2831 38.232 53.6218 39.512C52.9604 40.8133 51.9684 41.8373 50.6458 42.584C49.3231 43.352 47.7231 43.736 45.8458 43.736C43.3284 43.736 41.2591 43.1493 39.6378 41.976C38.0378 40.8027 37.1311 39.2027 36.9178 37.176H41.3658C41.6004 37.9867 42.1018 38.6267 42.8698 39.096C43.6591 39.5867 44.6084 39.832 45.7178 39.832C47.0191 39.832 48.0751 39.4373 48.8858 38.648C49.6964 37.88 50.1018 36.7067 50.1018 35.128V32.376C49.5258 33.208 48.7258 33.9013 47.7018 34.456C46.6991 35.0107 45.5471 35.288 44.2458 35.288C42.7524 35.288 41.3871 34.904 40.1498 34.136C38.9124 33.368 37.9311 32.2907 37.2057 30.904C36.5017 29.496 36.1497 27.8853 36.1497 26.072C36.1497 24.28 36.5017 22.6907 37.2057 21.304C37.9311 19.9173 38.9018 18.8507 40.1178 18.104C41.3551 17.3573 42.7311 16.984 44.2458 16.984ZM50.1018 26.136C50.1018 25.048 49.8884 24.12 49.4618 23.352C49.0351 22.5627 48.4591 21.9653 47.7338 21.56C47.0084 21.1333 46.2298 20.92 45.3978 20.92C44.5658 20.92 43.7978 21.1227 43.0938 21.528C42.3898 21.9333 41.8138 22.5307 41.3658 23.32C40.9391 24.088 40.7258 25.0053 40.7258 26.072C40.7258 27.1387 40.9391 28.0773 41.3658 28.888C41.8138 29.6773 42.3898 30.2853 43.0938 30.712C43.8191 31.1387 44.5871 31.352 45.3978 31.352C46.2298 31.352 47.0084 31.1493 47.7338 30.744C48.4591 30.3173 49.0351 29.72 49.4618 28.952C49.8884 28.1627 50.1018 27.224 50.1018 26.136ZM66.8613 35.288C65.1546 35.288 63.6186 34.9147 62.2533 34.168C60.8879 33.4 59.8106 32.3227 59.0213 30.936C58.2533 29.5493 57.8693 27.9493 57.8693 26.136C57.8693 24.3227 58.2639 22.7227 59.0533 21.336C59.8639 19.9493 60.9626 18.8827 62.3493 18.136C63.7359 17.368 65.2826 16.984 66.9893 16.984C68.6959 16.984 70.2426 17.368 71.6293 18.136C73.0159 18.8827 74.1039 19.9493 74.8933 21.336C75.7039 22.7227 76.1093 24.3227 76.1093 26.136C76.1093 27.9493 75.6933 29.5493 74.8612 30.936C74.0506 32.3227 72.9413 33.4 71.5333 34.168C70.1466 34.9147 68.5893 35.288 66.8613 35.288ZM66.8613 31.384C67.6719 31.384 68.4293 31.192 69.1333 30.808C69.8586 30.4027 70.4346 29.8053 70.8613 29.016C71.2879 28.2267 71.5013 27.2667 71.5013 26.136C71.5013 24.4507 71.0533 23.16 70.1573 22.264C69.2826 21.3467 68.2053 20.888 66.9253 20.888C65.6453 20.888 64.5679 21.3467 63.6933 22.264C62.8399 23.16 62.4133 24.4507 62.4133 26.136C62.4133 27.8213 62.8293 29.1227 63.6613 30.04C64.5146 30.936 65.5813 31.384 66.8613 31.384Z" fill="#F98526"/>
</svg>
